HIERARCHY
ROOT Hips
{
 OFFSET 0.000000 0.000000 0.000000
 CHANNELS 6 Xposition Yposition Zposition Yrotation Xrotation Zrotation
 JOINT Chest
 {
  OFFSET 0.000000 10.388337 0.005184
  CHANNELS 3 Yrotation Xrotation Zrotation
  JOINT Chest2
  {
   OFFSET 0.000000 10.458247 -0.010579
   CHANNELS 3 Yrotation Xrotation Zrotation
   JOINT Chest3
   {
    OFFSET 0.000000 10.415828 0.000000
    CHANNELS 3 Yrotation Xrotation Zrotation
    JOINT Chest4
    {
     OFFSET 0.000000 10.405206 0.000000
     CHANNELS 3 Yrotation Xrotation Zrotation
     JOINT Neck
     {
      OFFSET 0.000000 15.720090 0.000000
      CHANNELS 3 Yrotation Xrotation Zrotation
      JOINT Head
      {
       OFFSET 0.000000 9.732643 -0.022378
       CHANNELS 3 Yrotation Xrotation Zrotation
       End Site
       {
        OFFSET 0.000000 18.603619 -0.011814
       }
      }
     }
     JOINT RightCollar
     {
      OFFSET -3.167735 10.388953 0.000000
      CHANNELS 3 Yrotation Xrotation Zrotation
      JOINT RightShoulder
      {
       OFFSET -14.584825 0.000000 0.000000
       CHANNELS 3 Yrotation Xrotation Zrotation
       JOINT RightElbow
       {
        OFFSET 0.000000 -31.921689 0.000000
        CHANNELS 3 Yrotation Xrotation Zrotation
        JOINT RightWrist
        {
         OFFSET 0.000000 -25.835217 0.000000
         CHANNELS 3 Yrotation Xrotation Zrotation
         End Site
         {
          OFFSET 0.000000 -19.128920 0.000000
         }
        }
       }
      }
     }
     JOINT LeftCollar
     {
      OFFSET 3.167735 10.388953 0.000000
      CHANNELS 3 Yrotation Xrotation Zrotation
      JOINT LeftShoulder
      {
       OFFSET 14.584825 0.000000 0.000000
       CHANNELS 3 Yrotation Xrotation Zrotation
       JOINT LeftElbow
       {
        OFFSET 0.000000 -31.921689 0.000000
        CHANNELS 3 Yrotation Xrotation Zrotation
        JOINT LeftWrist
        {
         OFFSET 0.000000 -25.835217 0.000000
         CHANNELS 3 Yrotation Xrotation Zrotation
         End Site
         {
          OFFSET 0.000000 -19.128920 0.000000
         }
        }
       }
      }
     }
    }
   }
  }
 }
 JOINT RightHip
 {
  OFFSET -8.403278 -0.025659 -0.002592
  CHANNELS 3 Yrotation Xrotation Zrotation
  JOINT RightKnee
  {
   OFFSET 0.000000 -44.040977 0.002477
   CHANNELS 3 Yrotation Xrotation Zrotation
   JOINT RightAnkle
   {
    OFFSET 0.000000 -42.951162 0.004189
    CHANNELS 3 Yrotation Xrotation Zrotation
    JOINT RightToe
    {
     OFFSET 0.000000 -5.494238 12.197485
     CHANNELS 3 Yrotation Xrotation Zrotation
     End Site
     {
      OFFSET 0.000000 -1.538716 6.371628
     }
    }
   }
  }
 }
 JOINT LeftHip
 {
  OFFSET 8.403278 -0.025659 -0.002592
  CHANNELS 3 Yrotation Xrotation Zrotation
  JOINT LeftKnee
  {
   OFFSET 0.000000 -44.040977 0.002477
   CHANNELS 3 Yrotation Xrotation Zrotation
   JOINT LeftAnkle
   {
    OFFSET 0.000000 -42.951162 0.004189
    CHANNELS 3 Yrotation Xrotation Zrotation
    JOINT LeftToe
    {
     OFFSET 0.000000 -5.494238 12.197485
     CHANNELS 3 Yrotation Xrotation Zrotation
     End Site
     {
      OFFSET 0.000000 -1.538716 6.371628
     }
    }
   }
  }
 }
}
MOTION
Frames: 6
Frame Time: 0.008333
-29.706629 87.303119 376.728359 123.194894 -7.641849 -2.739176 0.451045 5.389424 1.710724 -0.048993 0.035471 0.025475 -0.087719 0.063542 0.045599 -2.389215 1.783203 1.220975 0.740901 13.740141 6.730494 -1.227807 -10.063043 12.400437 -9.889876 7.477922 -1.273918 -34.393636 -0.216651 -20.143670 -155.018809 -66.563813 176.127984 -4.700566 -31.309035 -31.903629 8.044208 5.877369 7.120156 28.276848 -0.444280 22.659011 169.610424 -81.681597 177.465933 -6.478144 -15.852331 32.073677 0.429873 -10.292975 11.303333 -1.653055 37.913694 3.093054 -4.844270 -18.022558 -10.787457 -0.255443 0.468186 3.224770 8.470841 -2.100556 10.313705 155.748642 56.280093 163.168782 -17.968159 28.159799 -16.394984 0.173624 3.718836 0.114359
-27.962301 87.259714 375.629342 123.455029 -7.415136 -2.603371 0.392110 5.325785 1.186971 -0.036196 0.044676 0.023576 -0.064832 0.080055 0.042217 -1.804519 2.284745 1.157082 0.797137 13.370983 6.913764 -1.229896 -10.738123 12.751309 -9.332593 6.980600 -0.339012 -35.403934 -2.944150 -20.113259 -154.300691 -67.060763 176.213464 -4.697870 -31.474692 -31.816568 8.369105 5.580519 7.314592 29.357202 0.191535 22.503586 168.904191 -81.130363 177.945094 -6.552832 -15.950261 32.299862 -0.123268 -9.744361 11.254214 -0.434076 39.321684 3.711542 -5.492928 -18.842635 -11.128713 -0.432675 -0.962539 2.854701 7.622915 -6.162975 8.966387 158.558445 52.179010 165.979812 -16.935821 28.784333 -16.313171 0.753591 3.723424 0.391357
-26.229198 87.241119 374.466254 123.508217 -7.143230 -2.305182 0.457295 5.236394 0.696788 -0.022348 0.052921 0.019374 -0.040034 0.094836 0.034702 -1.120871 2.718888 0.965449 0.818065 13.059179 7.044987 -1.274139 -11.307104 13.015079 -8.774203 6.612052 0.386931 -36.634223 -5.549545 -19.896216 -153.510664 -67.448729 176.426618 -4.723557 -31.581046 -31.735987 8.796424 5.380720 7.573217 30.300587 0.904382 22.240299 167.609439 -80.664796 179.014064 -6.588494 -15.967679 32.444287 -0.444609 -9.099921 11.068958 0.752990 40.419795 4.302165 -6.388498 -19.559379 -11.318940 -0.351476 -2.354813 2.534148 6.736664 -10.390662 7.269185 161.030854 48.365916 167.875122 -15.985160 28.918494 -16.270017 1.238580 3.939424 0.609766
-24.469552 87.248430 373.251511 123.330479 -6.848187 -1.896770 0.682059 5.114813 0.201042 -0.006271 0.060689 0.014995 -0.011234 0.108713 0.026860 -0.313537 3.044841 0.749566 0.788237 12.769212 7.157906 -1.406204 -11.831454 13.264281 -8.240505 6.387046 0.934279 -37.940970 -7.907771 -19.656908 -152.743485 -67.674971 176.671190 -4.769680 -31.706202 -31.639966 9.322969 5.357378 7.889534 31.054284 1.649709 21.908379 165.674717 -80.277060 -179.275789 -6.590946 -15.950096 32.546930 -0.434922 -8.318884 10.733512 1.475653 41.184376 4.729427 -7.164614 -20.193387 -11.429208 -0.107093 -3.649352 2.260592 5.955602 -14.719729 5.446314 162.848955 44.936564 168.819863 -15.676564 28.582063 -16.321257 1.539574 4.309034 0.730741
-22.626382 87.287364 371.980082 122.835635 -6.701324 -1.429737 1.150249 5.122484 -0.288939 0.013902 0.070279 0.011794 0.024844 0.125715 0.021116 0.615923 3.273213 0.577030 0.722060 12.462895 7.271127 -1.610660 -12.381580 13.531947 -7.718935 6.276299 1.314995 -39.051632 -9.952377 -19.529275 -152.243085 -67.752314 176.918456 -4.817267 -31.886235 -31.547365 9.969267 5.481187 8.224801 31.558486 2.417667 21.547699 163.469909 -79.965968 -177.265222 -6.581240 -15.955693 32.677558 -0.045101 -7.197697 10.188559 1.501233 41.643466 4.968266 -7.292058 -20.710153 -11.505703 0.098267 -4.865183 1.933482 5.472457 -18.879797 3.777950 163.997375 42.039584 169.043768 -16.187959 27.804008 -16.417693 1.719945 4.778462 0.806313
-20.664078 87.363128 370.651481 121.957887 -6.776909 -0.941676 1.950208 5.341910 -0.729482 0.041223 0.083871 0.009747 0.073493 0.149635 0.017442 1.632538 3.435931 0.458570 0.630062 12.121858 7.391795 -1.873216 -12.991652 13.829751 -7.179744 6.237442 1.553162 -39.699422 -11.695211 -19.622638 -152.240505 -67.766407 177.125144 -4.856776 -32.130972 -31.454300 10.743246 5.642256 8.548170 31.774223 3.236390 21.196960 161.453912 -79.741911 -175.387943 -6.589091 -16.055601 32.887119 0.744663 -5.608953 9.501829 1.032277 41.740226 5.049845 -6.733213 -21.093136 -11.517395 0.143487 -5.962751 1.508957 5.410905 -22.677942 2.433141 164.709155 39.823530 168.912569 -17.312117 26.729743 -16.564856 1.906003 5.205063 0.905603
